HIERARCHY
ROOT hip
{
	OFFSET 0.000000 0.000000 0.000000 
	CHANNELS 6 Xposition Yposition Zposition Xrotation Zrotation Yrotation
	JOINT abdomen
	{
		OFFSET 0.000000 3.402643 0.000000 
		CHANNELS 3 Xrotation Zrotation Yrotation
		JOINT chest
		{
			OFFSET 0.000000 8.438565 -0.680529 
			CHANNELS 3 Xrotation Zrotation Yrotation
			JOINT neck
			{
				OFFSET 0.000000 10.207942 -0.272212 
				CHANNELS 3 Xrotation Zrotation Yrotation
				JOINT head
				{
					OFFSET 0.000000 3.130431 0.000000 
					CHANNELS 3 Xrotation Zrotation Yrotation
					End Site
					{
						OFFSET 0.000000 3.130435 0.000000 
					}
				}
			}
			JOINT lCollar
			{
				OFFSET 3.470700 6.669187 -0.816635 
				CHANNELS 3 Yrotation Zrotation Xrotation
				JOINT lShldr
				{
					OFFSET 3.198488 0.000000 0.000000 
					CHANNELS 3 Zrotation Yrotation Xrotation
					JOINT lForeArm
					{
						OFFSET 10.139888 0.000000 0.000000 
						CHANNELS 3 Yrotation Zrotation Xrotation
						JOINT lHand
						{
							OFFSET 8.370511 0.000000 0.000000 
							CHANNELS 3 Zrotation Yrotation Xrotation
							End Site
							{
								OFFSET 4.083176 0.000000 0.000000 
							}
						}
					}
				}
			}
			JOINT rCollar
			{
				OFFSET -3.470700 6.669187 -0.816635 
				CHANNELS 3 Yrotation Zrotation Xrotation
				JOINT rShldr
				{
					OFFSET -3.198488 0.000000 0.000000 
					CHANNELS 3 Zrotation Yrotation Xrotation
					JOINT rForeArm
					{
						OFFSET -10.139888 0.000000 0.000000 
						CHANNELS 3 Yrotation Zrotation Xrotation
						JOINT rHand
						{
							OFFSET -8.370511 0.000000 0.000000 
							CHANNELS 3 Zrotation Yrotation Xrotation
							End Site
							{
								OFFSET -4.083176 0.000000 0.000000 
							}
						}
					}
				}
			}
		}
	}
	JOINT lThigh
	{
		OFFSET 5.308129 -1.633274 1.361059 
		CHANNELS 3 Xrotation Zrotation Yrotation
		JOINT lShin
		{
			OFFSET -2.041588 -20.007561 0.000000 
			CHANNELS 3 Xrotation Zrotation Yrotation
			JOINT lFoot
			{
				OFFSET 0.000000 -19.190928 -1.224953 
				CHANNELS 3 Xrotation Yrotation Zrotation
				End Site
				{
					OFFSET 0.000000 -2.449906 4.627600 
				}
			}
		}
	}
	JOINT rThigh
	{
		OFFSET -5.308129 -1.633274 1.361059 
		CHANNELS 3 Xrotation Zrotation Yrotation
		JOINT rShin
		{
			OFFSET 2.041588 -20.007561 0.000000 
			CHANNELS 3 Xrotation Zrotation Yrotation
			JOINT rFoot
			{
				OFFSET 0.000000 -19.190928 -1.224953 
				CHANNELS 3 Xrotation Yrotation Zrotation
				End Site
				{
					OFFSET 0.000000 -2.449906 4.627600 
				}
			}
		}
	}
}
MOTION
Frames: 18
Frame Time: 0.016667
2.521173 49.970242 42.068352 -177.703995 1.658820 -9.874650 -27.651199 -2.072330 -0.282161 16.341999 -2.960740 -0.475566 -28.375401 -4.310540 -1.903730 -0.539652 4.049210 -1.610130 2.000000 -2.000000 0.000000 58.412601 -20.762100 68.641403 34.180000 -0.327951 0.076865 0.052940 -0.050952 -155.436996 -2.000000 2.000000 0.000000 -52.651402 23.190001 64.693802 -38.984798 0.321120 0.086014 -0.064723 0.056618 -157.585999 -61.535648 5.255272 2.484477 84.176529 6.391415 4.553680 -20.432068 4.913434 -2.105094 21.551466 -6.071729 -8.634952 87.023628 -8.023910 -5.494185 11.218255 0.954373 4.567600 
2.516478 49.173214 42.137436 -177.264008 1.765560 -10.423200 -27.609900 -1.805790 -0.040130 16.713600 -2.962090 -0.328723 -27.819901 -4.132520 -1.865980 -0.246206 4.128110 -1.526880 2.000000 -2.000000 0.000000 61.246601 -20.019100 67.665604 28.584299 -0.334901 0.065472 0.051214 -0.045475 -153.386993 -2.000000 2.000000 0.000000 -56.688801 21.327000 58.110001 -32.275700 0.330441 0.073010 -0.060396 0.043451 -152.634995 -63.992191 3.959619 -0.253759 80.627991 7.283181 4.758421 161.395355 172.071213 -182.901459 25.359295 -6.472728 -8.108864 86.042084 -8.282889 -5.575410 12.571148 0.659281 5.372789 
2.477598 48.268604 42.233936 -177.029007 2.282090 -11.033600 -27.591600 -1.769330 0.388507 17.153099 -3.129250 -0.156063 -27.033800 -4.013140 -1.775590 0.086517 4.187590 -1.409330 2.000000 -2.000000 0.000000 63.092999 -21.059700 63.344700 24.805000 -0.338951 0.057417 0.048660 -0.035714 -149.783005 -2.000000 2.000000 0.000000 -59.959499 19.904800 53.469601 -25.596001 0.338147 0.059068 -0.056924 0.028345 -147.098007 -65.728302 1.793948 -3.596378 77.537117 8.190357 4.980889 162.390259 168.039871 -183.956863 28.916693 -7.286006 -7.497550 85.342255 -8.294780 -5.543980 14.038405 0.613885 5.767282 
2.407441 47.309681 42.333466 -176.666000 2.856490 -11.815800 -27.742100 -1.953400 0.972089 17.747801 -3.765020 0.037703 -25.385500 -3.978460 -1.578200 0.272586 4.178370 -1.258420 2.000000 -2.000000 0.000000 63.390598 -23.513700 57.474800 25.224899 -0.338528 0.058325 0.046822 -0.026406 -146.393997 -2.000000 2.000000 0.000000 -60.332401 20.499500 52.781799 -23.711201 0.340023 0.054981 -0.056185 0.023866 -145.475998 -67.089348 -0.919471 -8.095762 74.990112 8.984324 5.188089 162.275818 163.562698 -184.881317 31.866528 -8.278411 -6.768887 85.190582 -8.066787 -5.407238 15.424544 0.751617 5.726691 
2.299160 46.384216 42.439068 -176.134995 3.653800 -12.692600 -27.989799 -2.141060 1.378680 18.422501 -4.010900 0.139212 -24.017700 -4.063190 -1.272520 0.860361 4.033470 -1.089780 2.000000 -2.000000 0.000000 60.634102 -25.713200 59.272800 30.224899 -0.332979 0.068882 0.047798 -0.031704 -148.317993 -2.000000 2.000000 0.000000 -57.708199 22.838900 56.737301 -28.076500 0.335476 0.064349 -0.058698 0.036885 -150.212997 -68.061752 -3.759562 -13.083591 73.279610 9.647580 5.389017 160.780441 159.824524 -185.443207 34.272861 -9.676923 -6.243038 85.480637 -7.531138 -5.145359 16.715923 1.403073 4.838883 
2.200852 45.577415 42.581844 -175.729996 4.353160 -13.288000 -28.195200 -2.147190 1.414120 18.814899 -3.631140 0.139421 -23.003901 -4.305060 -1.101680 1.350080 3.839110 -1.046380 2.000000 -2.000000 0.000000 57.193802 -26.364000 64.813499 34.238602 -0.327872 0.076981 0.049815 -0.040443 -151.520996 -2.000000 2.000000 0.000000 -54.130501 24.584801 63.081200 -34.326500 0.327754 0.077100 -0.064274 0.055414 -157.126999 -68.882629 -5.730655 -17.079023 71.905716 10.035415 5.462282 -20.415787 21.222771 -5.775237 36.610191 -10.955647 -6.155610 86.402252 -6.894193 -4.888940 18.010527 2.162599 3.759823 
2.150378 44.928516 42.763832 -175.466003 4.322420 -13.387500 -28.320400 -2.049970 1.368130 18.873800 -3.504350 0.141762 -23.251801 -4.645980 -1.242480 1.262170 3.673190 -1.220090 2.000000 -2.000000 0.000000 54.671799 -26.349001 69.798302 36.435902 -0.324840 0.081257 0.052110 -0.048404 -154.479996 -2.000000 2.000000 0.000000 -51.467999 24.493500 69.745399 -37.978901 0.322614 0.084136 -0.079948 0.069388 -162.546997 -70.220894 -6.318360 -19.430044 71.018791 10.225879 5.480964 -19.673944 18.997429 -6.586529 39.173683 -11.391537 -6.399123 87.282784 -6.256475 -4.641628 19.794880 2.562184 3.107278 
2.124327 44.422218 42.964581 -175.320007 4.185270 -13.202100 -28.428400 -2.097760 1.597110 18.843800 -3.845940 0.212319 -24.365900 -4.835130 -1.582040 0.694677 3.623690 -1.487920 2.000000 -2.000000 0.000000 52.936001 -26.947001 72.761101 38.369499 -0.322038 0.084922 0.063524 -0.063097 -156.335999 -2.000000 2.000000 0.000000 -49.396099 24.194099 74.241798 -40.322701 0.319083 0.088472 -0.083113 0.075632 -165.046997 -71.677429 -6.638190 -21.124140 70.117256 10.205304 5.419189 -17.541773 16.157484 -7.501663 41.820724 -11.752777 -7.142557 88.456100 -5.662948 -4.462887 21.425550 2.890304 2.636836 
2.115891 44.034462 43.178703 -175.475006 4.410090 -13.098100 -28.458401 -2.165960 1.855530 18.775101 -3.943410 0.317582 -24.950899 -4.786450 -1.750380 0.322762 3.662000 -1.582250 2.000000 -2.000000 0.000000 51.232700 -27.915001 74.488899 40.449600 -0.318887 0.088756 0.064180 -0.064924 -157.029007 -2.000000 2.000000 0.000000 -47.820599 24.829700 75.593201 -42.832500 0.315109 0.092952 -0.083229 0.075849 -165.134995 -72.786316 -7.056024 -22.031954 69.396828 10.137421 5.319507 -15.002613 14.306451 -8.232549 44.460682 -12.593516 -8.393757 89.871834 -5.099494 -4.303533 22.735033 3.879003 1.389230 
2.144065 43.755825 43.399780 -175.966003 4.091440 -13.070400 -28.327801 -2.024580 1.959050 18.569500 -3.952710 0.390615 -24.690800 -4.729210 -1.682440 0.410793 3.681670 -1.529030 2.000000 -2.000000 0.000000 49.470699 -28.648399 76.192200 42.275799 -0.316008 0.092026 0.064762 -0.056722 -157.625000 -2.000000 2.000000 0.000000 -46.696999 25.572100 75.934700 -45.225101 0.311142 0.097057 -0.082499 0.074472 -164.578003 -73.479820 -7.113262 -22.731236 69.064156 9.930311 5.175865 -12.840335 13.546876 -8.601258 46.970127 -12.962821 -9.210462 91.305023 -4.608335 -4.198674 23.959564 4.614018 0.452645 
2.178182 43.562271 43.605587 -176.518005 3.080250 -12.869100 -28.107500 -1.781440 2.004720 18.265200 -4.234910 0.471573 -24.382900 -4.865610 -1.628720 0.567537 3.584480 -1.532670 2.000000 -2.000000 0.000000 48.021500 -29.254700 77.725098 43.945702 -0.313285 0.094935 0.065549 -0.058763 -158.406006 -2.000000 2.000000 0.000000 -45.581100 25.699600 76.950203 -47.090302 0.307932 0.100140 -0.082246 0.073987 -164.382996 -73.987556 -7.159973 -23.699673 68.884529 9.691330 5.070584 -11.706058 14.100682 -8.648019 48.827747 -12.320697 -9.375216 92.812881 -4.220078 -4.126828 25.317921 4.437671 0.680716 
2.176676 43.413231 43.799480 -176.998993 2.730630 -12.258900 -27.932100 -1.821180 2.039390 18.069000 -4.351380 0.491053 -24.536900 -5.005880 -1.690920 0.508997 3.486910 -1.618260 2.000000 -2.000000 0.000000 46.865898 -29.841299 79.033302 45.586399 -0.310528 0.097714 0.066375 -0.060818 -159.197006 -2.000000 2.000000 0.000000 -44.307999 25.475700 78.317497 -48.711399 0.305062 0.102733 -0.082258 0.074011 -164.391998 -74.206123 -8.024504 -24.029175 68.400436 9.528983 4.951371 -12.222675 16.273907 -8.324836 49.764675 -11.553247 -10.108572 93.993927 -3.952609 -4.074008 26.887911 3.613144 1.814361 
2.137314 43.282223 43.981918 -177.369003 3.150980 -11.427200 -27.800900 -2.077420 1.992610 18.049999 -4.165950 0.425870 -24.881399 -4.917820 -1.791810 0.352403 3.515870 -1.678460 2.000000 -2.000000 0.000000 45.788399 -30.291000 80.297798 47.031700 -0.308034 0.100096 0.067100 -0.062560 -159.871002 -2.000000 2.000000 0.000000 -43.074001 25.300501 79.640099 -50.303200 0.302173 0.105200 -0.082448 0.074375 -164.539001 -74.314018 -9.178760 -22.831064 68.004265 9.524239 4.921985 -14.690443 18.728203 -7.347982 49.551365 -10.797411 -11.376369 94.555336 -3.837069 -4.073163 27.495810 3.650673 1.577277 
2.062070 43.162403 44.123577 -177.584000 3.229550 -10.683800 -27.706800 -2.217250 1.842360 18.158300 -3.980900 0.341980 -24.972601 -4.813170 -1.877670 0.303349 3.584000 -1.705400 2.000000 -2.000000 0.000000 44.740101 -30.701599 81.547600 48.213402 -0.305952 0.101996 0.067803 -0.064193 -160.505997 -2.000000 2.000000 0.000000 -41.859501 25.193600 81.007301 -51.934101 0.299144 0.107642 -0.082805 0.075053 -164.811996 -74.474976 -9.526361 -20.464563 67.968109 9.612094 4.967119 -17.947037 19.582186 -6.004417 47.882256 -9.228889 -11.931970 94.081306 -3.991502 -4.094533 26.470804 4.494055 -0.162947 
1.967503 43.069489 44.226818 -177.742004 2.576130 -10.054400 -27.628500 -2.182080 1.633820 18.255899 -4.059240 0.250430 -24.690599 -4.953140 -1.881310 0.420856 3.535490 -1.714550 2.000000 -2.000000 0.000000 43.721199 -31.102400 82.787598 49.268002 -0.304060 0.103655 0.068703 -0.066217 -161.296997 -2.000000 2.000000 0.000000 -40.664299 25.155100 82.462402 -53.516102 0.296141 0.109929 -0.083177 0.075753 -165.095993 -74.259209 -9.263943 -18.268717 68.043503 9.657449 4.982969 -19.855042 19.102833 -5.092557 45.035995 -6.482868 -11.440892 92.296425 -4.476102 -4.165541 24.147747 4.645639 -0.892915 
1.878801 43.047222 44.313992 -177.919006 1.766410 -9.427740 -27.589800 -2.178800 1.422340 18.284401 -4.381330 0.153640 -24.276300 -5.164580 -1.828790 0.597125 3.438310 -1.717440 2.000000 -2.000000 0.000000 42.839100 -31.366400 83.944901 50.244598 -0.302281 0.105161 0.069619 -0.068203 -162.078003 -2.000000 2.000000 0.000000 -39.537701 25.135900 83.823997 -54.922401 0.293418 0.111891 -0.083697 0.076715 -165.485992 -73.726379 -8.889518 -16.186708 68.524094 9.600978 4.996238 -19.983582 17.794323 -4.818501 41.491024 -3.100794 -10.552399 89.384888 -5.369996 -4.385189 20.921587 3.794208 -0.120020 
1.783751 43.120960 44.370499 -178.007004 1.171170 -8.884850 -27.581900 -2.265040 1.302870 18.351700 -4.771870 0.075456 -23.853100 -5.172520 -1.879490 0.792841 3.399590 -1.732830 2.000000 -2.000000 0.000000 42.289600 -31.503401 84.901901 50.996601 -0.300894 0.106299 0.070265 -0.069562 -162.615005 -2.000000 2.000000 0.000000 -38.489498 25.009300 85.083801 -56.025902 0.291249 0.113383 -0.084516 0.078200 -166.091995 -73.076225 -8.308368 -13.949189 69.461525 9.251859 4.909594 -19.404423 15.696143 -4.613571 37.294636 0.466022 -9.669646 85.696014 -6.829914 -4.813152 16.658819 2.904337 0.908043 
1.651327 43.303715 44.383526 -177.871002 0.790470 -8.554470 -27.642700 -2.362240 1.291090 18.497999 -5.016310 0.042677 -23.448900 -4.976610 -2.058200 0.978660 3.448560 -1.783000 2.000000 -2.000000 0.000000 42.248501 -31.532801 85.624603 51.279800 -0.300368 0.106723 0.070695 -0.070447 -162.966995 -2.000000 2.000000 0.000000 -37.588299 24.784800 86.128700 -56.650902 0.290008 0.114210 -0.085391 0.079747 -166.725998 -72.466385 -7.379112 -11.514819 71.228783 8.716113 4.791759 -19.087111 13.115590 -4.269120 32.374844 4.515726 -8.698231 81.955368 -9.299286 -5.862736 11.254086 1.825184 2.728691 
